<?xml version="1.0" encoding="UTF-8" standalone="no"?>
<svg
   width="374.18417"
   height="116.6625"
   viewBox="0 0 374.18417 116.6625"
   data-svgdocument=""
   id="_3qcLrDpQ6JrxcWAie__xY"
   class="fl-svgdocument"
   x="0"
   y="0"
   version="1.1"
   sodipodi:docname="ddrrpp-logo.svg"
   inkscape:version="1.1.1 (3bf5ae0d25, 2021-09-20)"
   xmlns:inkscape="http://www.inkscape.org/namespaces/inkscape"
   xmlns:sodipodi="http://sodipodi.sourceforge.net/DTD/sodipodi-0.dtd"
   xmlns="http://www.w3.org/2000/svg"
   xmlns:svg="http://www.w3.org/2000/svg">
  <sodipodi:namedview
     id="namedview859"
     pagecolor="#ffffff"
     bordercolor="#666666"
     borderopacity="1.0"
     inkscape:pageshadow="2"
     inkscape:pageopacity="0.0"
     inkscape:pagecheckerboard="0"
     showgrid="false"
     inkscape:zoom="0.77734375"
     inkscape:cx="167.8794"
     inkscape:cy="82.331658"
     inkscape:window-width="1920"
     inkscape:window-height="1011"
     inkscape:window-x="0"
     inkscape:window-y="32"
     inkscape:window-maximized="1"
     inkscape:current-layer="_3qcLrDpQ6JrxcWAie__xY" />
  <defs
     id="_Mz_1Sy8Z-r4V5NhIO4399"
     transform="matrix(0.6453708410263062, 0, 0, 0.6453708410263062, -19.261096954345703, 186.8233184814453)" />
  <path
     text="DDRRPP"
     text-anchor="start"
     font-size="100px"
     letter-spacing="0"
     side="left"
     offset="0"
     dx="0"
     dy="0"
     space="preserve"
     href=""
     font-family="Bungee"
     font-scale="contain"
     x="0"
     y="0"
     fill="#334747"
     data-fl-textpath=""
     id="_dbHH01i2xlTP3TKjYS3EL"
     d="m 151.96652,62.493321 v 0 h -19.37577 q -1.0924,0 -1.5811,-0.488707 -0.48871,-0.488706 -0.48871,-1.581108 v 0 -37.25667 q 0,-1.092403 0.48871,-1.581109 0.4887,-0.488706 1.5811,-0.488706 v 0 h 19.37577 q 7.18686,0 10.6653,2.874743 3.47844,2.874743 3.47844,8.854208 v 0 17.938397 q 0,5.979466 -3.47844,8.854209 -3.47844,2.874743 -10.6653,2.874743 z m -1.55236,-30.414782 h -6.84189 v 19.548253 h 6.84189 q 1.37988,0 2.04107,-0.689938 0.66119,-0.689939 0.66119,-2.12731 v 0 -13.971251 q 0,-1.437372 -0.66119,-2.098563 -0.66119,-0.661191 -2.04107,-0.661191 z m 44.44353,30.414782 v 0 h -19.37577 q -1.0924,0 -1.58111,-0.488707 -0.4887,-0.488706 -0.4887,-1.581108 v 0 -37.25667 q 0,-1.092403 0.4887,-1.581109 0.48871,-0.488706 1.58111,-0.488706 v 0 h 19.37577 q 7.18686,0 10.66529,2.874743 3.47844,2.874743 3.47844,8.854208 v 0 17.938397 q 0,5.979466 -3.47844,8.854209 -3.47843,2.874743 -10.66529,2.874743 z m -1.55236,-30.414782 h -6.84189 v 19.548253 h 6.84189 q 1.37987,0 2.04106,-0.689938 0.6612,-0.689939 0.6612,-2.12731 v 0 -13.971251 q 0,-1.437372 -0.6612,-2.098563 -0.66119,-0.661191 -2.04106,-0.661191 z m 40.30389,-0.632443 h -4.31211 v 7.359342 h 4.31211 q 1.49487,0 2.01232,-0.776181 0.51746,-0.77618 0.51746,-1.926077 v 0 -1.954826 q 0,-1.149897 -0.51746,-1.926078 -0.51745,-0.77618 -2.01232,-0.77618 z m -6.38193,31.047225 v 0 h -8.8542 q -1.09241,0 -1.58111,-0.488707 -0.48871,-0.488706 -0.48871,-1.581108 v 0 -37.25667 q 0,-1.092403 0.48871,-1.581109 0.4887,-0.488706 1.58111,-0.488706 v 0 h 19.14579 q 6.43942,0 8.88295,2.673511 2.44353,2.673511 2.44353,6.928131 v 0 2.644763 q 0,2.414784 -0.71868,4.110883 -0.71869,1.696098 -2.50103,2.443531 v 0 q 3.10472,0.34497 5.0308,2.529774 1.92608,2.184805 1.92608,5.806981 v 0 12.188911 q 0,1.092402 -0.48871,1.581108 -0.4887,0.488707 -1.58111,0.488707 v 0 h -8.9117 q -1.0924,0 -1.58111,-0.488707 -0.4887,-0.488706 -0.4887,-1.581108 v 0 -8.796714 q 0,-1.264887 -0.48871,-1.868583 -0.48871,-0.603696 -1.6961,-0.603696 v 0 h -8.04928 v 11.268993 q 0,1.092402 -0.48871,1.581108 -0.4887,0.488707 -1.58111,0.488707 z m 49.10062,-31.047225 h -4.31212 v 7.359342 h 4.31212 q 1.49486,0 2.01232,-0.776181 0.51745,-0.77618 0.51745,-1.926077 v 0 -1.954826 q 0,-1.149897 -0.51745,-1.926078 -0.51746,-0.77618 -2.01232,-0.77618 z m -6.38193,31.047225 v 0 h -8.85421 q -1.0924,0 -1.58111,-0.488707 -0.48871,-0.488706 -0.48871,-1.581108 v 0 -37.25667 q 0,-1.092403 0.48871,-1.581109 0.48871,-0.488706 1.58111,-0.488706 v 0 h 19.14579 q 6.43942,0 8.88295,2.673511 2.44353,2.673511 2.44353,6.928131 v 0 2.644763 q 0,2.414784 -0.71868,4.110883 -0.71869,1.696098 -2.50103,2.443531 v 0 q 3.10472,0.34497 5.0308,2.529774 1.92608,2.184805 1.92608,5.806981 v 0 12.188911 q 0,1.092402 -0.48871,1.581108 -0.4887,0.488707 -1.5811,0.488707 v 0 h -8.91171 q -1.0924,0 -1.58111,-0.488707 -0.4887,-0.488706 -0.4887,-1.581108 v 0 -8.796714 q 0,-1.264887 -0.48871,-1.868583 -0.48871,-0.603696 -1.6961,-0.603696 v 0 h -8.04928 v 11.268993 q 0,1.092402 -0.4887,1.581108 -0.48871,0.488707 -1.58111,0.488707 z m 42.77617,0 v 0 h -8.9117 q -1.0924,0 -1.58111,-0.488707 -0.48871,-0.488706 -0.48871,-1.581108 v 0 -37.25667 q 0,-1.092403 0.48871,-1.581109 0.48871,-0.488706 1.58111,-0.488706 v 0 h 17.59343 q 7.8193,0 10.69404,3.104722 2.87474,3.104723 2.87474,8.106776 v 0 7.359342 q 0,5.002053 -2.87474,8.106775 -2.87474,3.104723 -10.69404,3.104723 v 0 h -6.61191 v 9.544147 q 0,1.092402 -0.48871,1.581108 -0.4887,0.488707 -1.58111,0.488707 z m 7.12937,-30.644761 h -5.17454 v 8.681724 h 5.17454 q 1.66735,0 2.1848,-0.862423 0.51745,-0.862423 0.51745,-1.954825 v 0 -3.047228 q 0,-1.092402 -0.51745,-1.954825 -0.51745,-0.862423 -2.1848,-0.862423 z m 32.08213,30.644761 v 0 h -8.9117 q -1.09241,0 -1.58111,-0.488707 -0.48871,-0.488706 -0.48871,-1.581108 v 0 -37.25667 q 0,-1.092403 0.48871,-1.581109 0.4887,-0.488706 1.58111,-0.488706 v 0 h 17.59342 q 7.8193,0 10.69405,3.104722 2.87474,3.104723 2.87474,8.106776 v 0 7.359342 q 0,5.002053 -2.87474,8.106775 -2.87475,3.104723 -10.69405,3.104723 v 0 h -6.61191 v 9.544147 q 0,1.092402 -0.4887,1.581108 -0.48871,0.488707 -1.58111,0.488707 z m 7.12936,-30.644761 h -5.17454 v 8.681724 h 5.17454 q 1.66735,0 2.18481,-0.862423 0.51745,-0.862423 0.51745,-1.954825 v 0 -3.047228 q 0,-1.092402 -0.51745,-1.954825 -0.51746,-0.862423 -2.18481,-0.862423 z"
     style="stroke-width:0.574949" />
  <path
     id="_k08helhpR_Dlyy1GW_-pD"
     d="M 103.70442,2.2159805e-6 H 49.478366 A 13.520995,13.520995 0 0 0 35.969211,13.497317 V 36.845304 H 12.502827 A 12.514616,12.514616 0 0 0 5.0839892e-5,49.34808 V 87.921986 A 12.514616,12.514616 0 0 0 12.502827,100.47212 h 5.517323 v 13.21316 a 2.9599375,2.9599375 0 0 0 5.067413,2.09564 l 15.391675,-15.3088 H 60.489334 A 12.514616,12.514616 0 0 0 72.99211,87.921986 V 69.676931 h 2.190353 l 17.07292,17.001881 a 2.9599375,2.9599375 0 0 0 5.055573,-2.095636 V 69.676931 h 6.405304 a 13.520995,13.520995 0 0 0 13.49732,-13.509155 v -42.6231 A 13.520995,13.520995 0 0 0 103.70442,2.2159805e-6 Z M 67.072235,87.921986 a 6.5947408,6.5947408 0 0 1 -6.582901,6.582901 H 37.188706 A 2.9599375,2.9599375 0 0 0 35.09307,95.369188 L 23.940025,106.49855 V 97.512183 A 2.9599375,2.9599375 0 0 0 20.980088,94.552246 H 12.502827 A 6.5947408,6.5947408 0 0 1 5.9199258,87.921986 V 49.34808 A 6.5947408,6.5947408 0 0 1 12.502827,42.765179 H 35.981051 V 56.167776 A 13.520995,13.520995 0 0 0 49.478366,69.676931 H 67.072235 Z M 111.2937,56.167776 a 7.5892797,7.5892797 0 0 1 -7.58928,7.58928 h -9.365241 a 2.9599375,2.9599375 0 0 0 -2.959938,2.959937 V 77.443807 L 78.533113,64.621358 A 2.9599375,2.9599375 0 0 0 76.437477,63.757056 H 49.478366 a 7.5892797,7.5892797 0 0 1 -7.58928,-7.58928 v -42.6231 a 7.5892797,7.5892797 0 0 1 7.58928,-7.5774398 h 54.226054 a 7.5892797,7.5892797 0 0 1 7.58928,7.5774398 z"
     stroke="none"
     fill="#334747"
     stroke-width="1.18397" />
  <path
     id="_SzOGutgdP9UB7Bpik8ioX"
     d="M 76.908722,26.516877 C 72.255796,16.464485 56.044631,21.814441 60.166081,34.86847 62.377855,41.359899 66.873349,44.237758 76.907948,51.475727 86.943707,44.237758 91.437654,41.359125 93.650201,34.86847 97.769717,21.814441 81.560486,16.464485 76.908722,26.516877 Z"
     stroke="none"
     fill="#d41717"
     stroke-width="0.386809" />
</svg>
