<?xml version="1.0" encoding="UTF-8" standalone="no"?>
<svg
   width="280.34076"
   height="116.6625"
   viewBox="0 0 280.34076 116.6625"
   data-svgdocument=""
   id="_3qcLrDpQ6JrxcWAie__xY"
   class="fl-svgdocument"
   x="0"
   y="0"
   version="1.1"
   sodipodi:docname="getdrip-logo.svg"
   inkscape:version="1.1.1 (3bf5ae0d25, 2021-09-20)"
   xmlns:inkscape="http://www.inkscape.org/namespaces/inkscape"
   xmlns:sodipodi="http://sodipodi.sourceforge.net/DTD/sodipodi-0.dtd"
   xmlns="http://www.w3.org/2000/svg"
   xmlns:svg="http://www.w3.org/2000/svg">
  <sodipodi:namedview
     id="namedview859"
     pagecolor="#ffffff"
     bordercolor="#666666"
     borderopacity="1.0"
     inkscape:pageshadow="2"
     inkscape:pageopacity="0.0"
     inkscape:pagecheckerboard="0"
     showgrid="false"
     inkscape:zoom="0.77734375"
     inkscape:cx="167.8794"
     inkscape:cy="82.331658"
     inkscape:window-width="1920"
     inkscape:window-height="1011"
     inkscape:window-x="0"
     inkscape:window-y="32"
     inkscape:window-maximized="1"
     inkscape:current-layer="_3qcLrDpQ6JrxcWAie__xY" />
  <defs
     id="_Mz_1Sy8Z-r4V5NhIO4399"
     transform="matrix(0.6453708410263062, 0, 0, 0.6453708410263062, -19.261096954345703, 186.8233184814453)" />
  <path
     text="DRIP"
     text-anchor="start"
     font-size="100px"
     letter-spacing="0"
     side="left"
     offset="0"
     dx="0"
     dy="0"
     space="preserve"
     href=""
     font-family="Bungee"
     font-scale="contain"
     x="0"
     y="0"
     fill="#334747"
     data-fl-textpath=""
     id="_dbHH01i2xlTP3TKjYS3EL-3"
     d="m 148.16009,63.150408 v 0 h -19.37576 q -1.09241,0 -1.58111,-0.488706 -0.48871,-0.488707 -0.48871,-1.581109 v 0 -37.256666 q 0,-1.092402 0.48871,-1.581108 0.4887,-0.488707 1.58111,-0.488707 v 0 h 19.37576 q 7.18686,0 10.6653,2.874743 3.47844,2.874743 3.47844,8.854208 v 0 17.938395 q 0,5.979465 -3.47844,8.854207 -3.47844,2.874743 -10.6653,2.874743 z M 146.60773,32.73563 h -6.84189 v 19.54825 h 6.84189 q 1.37988,0 2.04107,-0.689938 0.66119,-0.689938 0.66119,-2.127309 v 0 -13.97125 q 0,-1.437372 -0.66119,-2.098562 -0.66119,-0.661191 -2.04107,-0.661191 z m 40.3039,-0.632444 h -4.31212 v 7.359342 h 4.31212 q 1.49486,0 2.01232,-0.776181 0.51745,-0.77618 0.51745,-1.926077 v 0 -1.954826 q 0,-1.149897 -0.51745,-1.926077 -0.51746,-0.776181 -2.01232,-0.776181 z m -6.38193,31.047222 v 0 h -8.85421 q -1.0924,0 -1.58111,-0.488706 -0.48871,-0.488707 -0.48871,-1.581109 v 0 -37.256666 q 0,-1.092402 0.48871,-1.581108 0.48871,-0.488707 1.58111,-0.488707 v 0 h 19.14579 q 6.43942,0 8.88295,2.673511 2.44353,2.673511 2.44353,6.92813 v 0 2.644764 q 0,2.414783 -0.71868,4.110882 -0.71869,1.696098 -2.50103,2.443531 v 0 q 3.10472,0.344969 5.0308,2.529774 1.92608,2.184804 1.92608,5.80698 v 0 12.188909 q 0,1.092402 -0.48871,1.581109 -0.48871,0.488706 -1.58111,0.488706 v 0 h -8.9117 q -1.0924,0 -1.58111,-0.488706 -0.4887,-0.488707 -0.4887,-1.581109 v 0 -8.796713 q 0,-1.264886 -0.48871,-1.868582 -0.48871,-0.603696 -1.6961,-0.603696 v 0 h -8.04928 v 11.268991 q 0,1.092402 -0.48871,1.581109 -0.4887,0.488706 -1.5811,0.488706 z m 57.43736,0 h -24.49281 q -1.0924,0 -1.58111,-0.488706 -0.48871,-0.488707 -0.48871,-1.581109 v 0 -6.841888 q 0,-1.092402 0.48871,-1.581108 0.48871,-0.488706 1.58111,-0.488706 v 0 h 5.69199 V 32.850619 h -5.69199 q -1.0924,0 -1.58111,-0.488706 -0.48871,-0.488706 -0.48871,-1.581108 v 0 -6.956878 q 0,-1.092402 0.48871,-1.581108 0.48871,-0.488707 1.58111,-0.488707 v 0 h 24.49281 q 1.0924,0 1.5811,0.488707 0.48871,0.488706 0.48871,1.581108 v 0 6.956878 q 0,1.092402 -0.48871,1.581108 -0.4887,0.488706 -1.5811,0.488706 v 0 h -5.577 v 19.318272 h 5.577 q 1.0924,0 1.5811,0.488706 0.48871,0.488706 0.48871,1.581108 v 0 6.841888 q 0,1.092402 -0.48871,1.581109 -0.4887,0.488706 -1.5811,0.488706 z m 20.1232,0 v 0 h -8.91171 q -1.0924,0 -1.58111,-0.488706 -0.4887,-0.488707 -0.4887,-1.581109 v 0 -37.256666 q 0,-1.092402 0.4887,-1.581108 0.48871,-0.488707 1.58111,-0.488707 v 0 h 17.59343 q 7.8193,0 10.69404,3.104723 2.87474,3.104722 2.87474,8.106774 v 0 7.359342 q 0,5.002052 -2.87474,8.106774 -2.87474,3.104722 -10.69404,3.104722 v 0 h -6.61191 v 9.544146 q 0,1.092402 -0.48871,1.581109 -0.4887,0.488706 -1.5811,0.488706 z m 7.12936,-30.644758 h -5.17454 v 8.681723 h 5.17454 q 1.66735,0 2.1848,-0.862422 0.51746,-0.862423 0.51746,-1.954826 v 0 -3.047227 q 0,-1.092402 -0.51746,-1.954825 -0.51745,-0.862423 -2.1848,-0.862423 z"
     style="stroke-width:0.574949" />
  <path
     id="_k08helhpR_Dlyy1GW_-pD"
     d="M 103.70442,0 H 49.478366 A 13.520995,13.520995 0 0 0 35.969211,13.497315 V 36.845302 H 12.502827 A 12.514616,12.514616 0 0 0 5.0418062e-5,49.348078 V 87.921984 A 12.514616,12.514616 0 0 0 12.502827,100.47212 h 5.517323 v 13.21316 a 2.9599375,2.9599375 0 0 0 5.067413,2.09564 l 15.391675,-15.3088 H 60.489334 A 12.514616,12.514616 0 0 0 72.99211,87.921984 V 69.676929 h 2.190353 l 17.07292,17.001881 a 2.9599375,2.9599375 0 0 0 5.055573,-2.095636 V 69.676929 h 6.405304 a 13.520995,13.520995 0 0 0 13.49732,-13.509155 v -42.6231 A 13.520995,13.520995 0 0 0 103.70442,0 Z M 67.072235,87.921984 a 6.5947408,6.5947408 0 0 1 -6.582901,6.582901 H 37.188706 A 2.9599375,2.9599375 0 0 0 35.09307,95.369186 L 23.940025,106.49855 V 97.512181 A 2.9599375,2.9599375 0 0 0 20.980088,94.552244 H 12.502827 A 6.5947408,6.5947408 0 0 1 5.9199254,87.921984 V 49.348078 A 6.5947408,6.5947408 0 0 1 12.502827,42.765177 H 35.981051 V 56.167774 A 13.520995,13.520995 0 0 0 49.478366,69.676929 H 67.072235 Z M 111.2937,56.167774 a 7.5892797,7.5892797 0 0 1 -7.58928,7.58928 h -9.365241 a 2.9599375,2.9599375 0 0 0 -2.959938,2.959937 V 77.443805 L 78.533113,64.621356 A 2.9599375,2.9599375 0 0 0 76.437477,63.757054 H 49.478366 a 7.5892797,7.5892797 0 0 1 -7.58928,-7.58928 v -42.6231 a 7.5892797,7.5892797 0 0 1 7.58928,-7.57744 h 54.226054 a 7.5892797,7.5892797 0 0 1 7.58928,7.57744 z"
     stroke="none"
     fill="#334747"
     stroke-width="1.18397" />
  <path
     id="_SzOGutgdP9UB7Bpik8ioX"
     d="M 76.908722,26.516875 C 72.255796,16.464483 56.044631,21.814439 60.166081,34.868468 62.377855,41.359897 66.873349,44.237756 76.907948,51.475725 86.943707,44.237756 91.437654,41.359123 93.650201,34.868468 97.769717,21.814439 81.560486,16.464483 76.908722,26.516875 Z"
     stroke="none"
     fill="#d41717"
     stroke-width="0.386809" />
</svg>
