<?xml version="1.0" encoding="UTF-8" standalone="no"?>
<svg
   width="356.76932"
   height="58.437828"
   viewBox="0 0 356.76931 58.437829"
   data-svgdocument=""
   id="_3qcLrDpQ6JrxcWAie__xY"
   class="fl-svgdocument"
   x="0"
   y="0"
   version="1.1"
   sodipodi:docname="outbounddr-logo.svg"
   inkscape:version="1.1.1 (3bf5ae0d25, 2021-09-20)"
   xmlns:inkscape="http://www.inkscape.org/namespaces/inkscape"
   xmlns:sodipodi="http://sodipodi.sourceforge.net/DTD/sodipodi-0.dtd"
   xmlns="http://www.w3.org/2000/svg"
   xmlns:svg="http://www.w3.org/2000/svg">
  <sodipodi:namedview
     id="namedview7"
     pagecolor="#ffffff"
     bordercolor="#666666"
     borderopacity="1.0"
     inkscape:pageshadow="2"
     inkscape:pageopacity="0.0"
     inkscape:pagecheckerboard="0"
     showgrid="false"
     inkscape:zoom="1.6269531"
     inkscape:cx="157.04202"
     inkscape:cy="39.337336"
     inkscape:window-width="1920"
     inkscape:window-height="1011"
     inkscape:window-x="0"
     inkscape:window-y="32"
     inkscape:window-maximized="1"
     inkscape:current-layer="_3qcLrDpQ6JrxcWAie__xY" />
  <defs
     id="_Mz_1Sy8Z-r4V5NhIO4399"
     transform="matrix(0.6453708410263062, 0, 0, 0.6453708410263062, -19.261096954345703, 186.8233184814453)" />
  <path
     id="_k08helhpR_Dlyy1GW_-pD"
     d="M 51.947105,0 H 24.784442 A 6.7728668,6.7728668 0 0 0 18.017497,6.76092 V 18.45647 H 6.262845 A 6.2687471,6.2687471 0 0 0 2.5004333e-5,24.7192 V 44.04145 A 6.2687471,6.2687471 0 0 0 6.262845,50.3279 h 2.7637 v 6.61863 a 1.4826752,1.4826752 0 0 0 2.538353,1.04969 l 7.709917,-7.66832 h 11.025181 a 6.2687471,6.2687471 0 0 0 6.26282,-6.28645 v -9.13911 h 1.097183 l 8.552076,8.51627 a 1.4826752,1.4826752 0 0 0 2.53241,-1.04963 v -7.46664 h 3.20855 a 6.7728668,6.7728668 0 0 0 6.76095,-6.76713 V 6.7846 A 6.7728668,6.7728668 0 0 0 51.947105,0 Z M 33.597471,44.04145 a 3.3034012,3.3034012 0 0 1 -3.297475,3.29737 H 18.628369 a 1.4826752,1.4826752 0 0 0 -1.04973,0.43309 l -5.586728,5.57471 v -4.5013 a 1.4826752,1.4826752 0 0 0 -1.482666,-1.48281 h -4.2464 A 3.3034012,3.3034012 0 0 1 2.965378,44.04145 V 24.7192 a 3.3034012,3.3034012 0 0 1 3.297467,-3.2974 h 11.760586 v 6.71341 a 6.7728668,6.7728668 0 0 0 6.761011,6.76713 h 8.813029 z M 55.748605,28.13521 a 3.8015822,3.8015822 0 0 1 -3.8015,3.80172 h -4.69124 a 1.4826752,1.4826752 0 0 0 -1.48268,1.48253 v 5.37333 L 39.338386,32.36984 A 1.4826752,1.4826752 0 0 0 38.28865,31.93693 H 24.784442 A 3.8015822,3.8015822 0 0 1 20.982865,28.13521 V 6.7846 a 3.8015822,3.8015822 0 0 1 3.801577,-3.7955 h 27.162663 a 3.8015822,3.8015822 0 0 1 3.8015,3.7955 z"
     stroke="none"
     fill="#2c3459"
     stroke-width="0.593081" />
  <path
     id="_SzOGutgdP9UB7Bpik8ioX"
     d="m 38.524703,13.28271 c -2.330729,-5.0355 -10.451123,-2.35549 -8.386632,4.18328 1.107904,3.25172 3.359756,4.69341 8.386238,8.31887 5.027081,-3.62546 7.278166,-5.06763 8.386456,-8.31887 2.06351,-6.53877 -6.055931,-9.21878 -8.386062,-4.18328 z"
     stroke="none"
     fill="#99d747"
     stroke-width="0.19376" />
  <text
     xml:space="preserve"
     style="font-style:normal;font-weight:normal;font-size:40px;line-height:1.25;font-family:sans-serif;letter-spacing:0px;word-spacing:0px;fill:#2c3459;fill-opacity:1;stroke:none"
     x="65.909943"
     y="33.5159"
     id="text9683"><tspan
       sodipodi:role="line"
       id="tspan9681"
       x="65.909943"
       y="33.5159">OUTBOUNDDR</tspan></text>
</svg>
