<?xml version="1.0" encoding="UTF-8" standalone="no"?>
<svg
   width="425.59009"
   height="116.6625"
   viewBox="0 0 425.59008 116.6625"
   data-svgdocument=""
   id="_3qcLrDpQ6JrxcWAie__xY"
   class="fl-svgdocument"
   x="0"
   y="0"
   version="1.1"
   sodipodi:docname="wpm-logo.svg"
   inkscape:version="1.1.2 (0a00cf5339, 2022-02-04)"
   xmlns:inkscape="http://www.inkscape.org/namespaces/inkscape"
   xmlns:sodipodi="http://sodipodi.sourceforge.net/DTD/sodipodi-0.dtd"
   xmlns="http://www.w3.org/2000/svg"
   xmlns:svg="http://www.w3.org/2000/svg">
  <sodipodi:namedview
     id="namedview894"
     pagecolor="#ffffff"
     bordercolor="#666666"
     borderopacity="1.0"
     inkscape:pageshadow="2"
     inkscape:pageopacity="0.0"
     inkscape:pagecheckerboard="0"
     showgrid="false"
     inkscape:zoom="1.5546875"
     inkscape:cx="249.88945"
     inkscape:cy="68.180905"
     inkscape:window-width="1920"
     inkscape:window-height="1011"
     inkscape:window-x="0"
     inkscape:window-y="32"
     inkscape:window-maximized="1"
     inkscape:current-layer="_3qcLrDpQ6JrxcWAie__xY" />
  <defs
     id="_Mz_1Sy8Z-r4V5NhIO4399"
     transform="matrix(0.6453708410263062, 0, 0, 0.6453708410263062, -19.261096954345703, 186.8233184814453)" />
  <path
     id="_k08helhpR_Dlyy1GW_-pD"
     d="M 103.70442,0 H 49.478367 A 13.520995,13.520995 0 0 0 35.969212,13.497315 V 36.845302 H 12.50283 A 12.514616,12.514616 0 0 0 5.042373e-5,49.348078 V 87.921984 A 12.514616,12.514616 0 0 0 12.50283,100.47212 h 5.51732 v 13.21316 a 2.9599375,2.9599375 0 0 0 5.06741,2.09564 l 15.391679,-15.3088 H 60.489335 A 12.514616,12.514616 0 0 0 72.992111,87.921984 V 69.676929 h 2.190353 l 17.07292,17.001881 a 2.9599375,2.9599375 0 0 0 5.055573,-2.095636 V 69.676929 h 6.405303 a 13.520995,13.520995 0 0 0 13.49732,-13.509155 v -42.6231 A 13.520995,13.520995 0 0 0 103.70442,0 Z M 67.072236,87.921984 a 6.5947408,6.5947408 0 0 1 -6.582901,6.582901 H 37.188707 a 2.9599375,2.9599375 0 0 0 -2.095636,0.864301 L 23.94003,106.49855 V 97.512181 A 2.9599375,2.9599375 0 0 0 20.98009,94.552244 H 12.50283 A 6.5947408,6.5947408 0 0 1 5.9199304,87.921984 V 49.348078 A 6.5947408,6.5947408 0 0 1 12.50283,42.765177 H 35.981052 V 56.167774 A 13.520995,13.520995 0 0 0 49.478367,69.676929 H 67.072236 Z M 111.2937,56.167774 a 7.5892797,7.5892797 0 0 1 -7.58928,7.58928 h -9.36524 a 2.9599375,2.9599375 0 0 0 -2.959938,2.959937 V 77.443805 L 78.533114,64.621356 A 2.9599375,2.9599375 0 0 0 76.437478,63.757054 H 49.478367 a 7.5892797,7.5892797 0 0 1 -7.58928,-7.58928 v -42.6231 a 7.5892797,7.5892797 0 0 1 7.58928,-7.57744 h 54.226053 a 7.5892797,7.5892797 0 0 1 7.58928,7.57744 z"
     stroke="none"
     fill="#334747"
     stroke-width="1.18397" />
  <path
     id="_SzOGutgdP9UB7Bpik8ioX"
     d="M 76.908723,26.516875 C 72.255797,16.464483 56.044632,21.814439 60.166082,34.868468 62.377856,41.359897 66.87335,44.237756 76.907949,51.475725 86.943708,44.237756 91.437655,41.359123 93.650202,34.868468 97.769718,21.814439 81.560487,16.464483 76.908723,26.516875 Z"
     stroke="none"
     fill="#d41717"
     stroke-width="0.386809" />
  <text
     xml:space="preserve"
     style="font-style:normal;font-weight:normal;font-size:40px;line-height:1.25;font-family:sans-serif;letter-spacing:0px;word-spacing:0px;fill:#000000;fill-opacity:1;stroke:none"
     x="234.1864"
     y="-84.820656"
     id="text13683"><tspan
       sodipodi:role="line"
       id="tspan13681"
       x="234.1864"
       y="-84.820656"></tspan></text>
  <text
     xml:space="preserve"
     style="font-style:normal;font-weight:normal;font-size:40px;line-height:0;font-family:sans-serif;letter-spacing:0px;word-spacing:0px;fill:#000000;fill-opacity:1;stroke:none"
     x="126.0468"
     y="47.19466"
     id="text26393"><tspan
       sodipodi:role="line"
       id="tspan26391"
       x="126.0468"
       y="47.19466"
       style="font-style:normal;font-variant:normal;font-weight:bold;font-stretch:normal;font-size:56px;line-height:1.25;font-family:FreeSans;-inkscape-font-specification:'FreeSans Bold';fill:#334747;fill-opacity:1">whitepaper</tspan><tspan
       sodipodi:role="line"
       x="126.0468"
       y="77.294662"
       style="font-style:normal;font-variant:normal;font-weight:bold;font-stretch:normal;font-size:28px;line-height:0.25;font-family:FreeSans;-inkscape-font-specification:'FreeSans Bold';fill:#334747;fill-opacity:1"
       id="tspan76824">marketing</tspan></text>
</svg>
